# xmcd
#
# Track frame offsets:
#	150
#	20004
#	40017
#	56406
#	71400
#	91274
#	111257
#	127689
#
# Disc length: 1903 seconds
#
# Revision: 1
# Processed by: cddbd v1.5.2PL0 Copyright (c) Steve Scherf et al.
# Submitted via: audiograbber 1.83.01
#
DISCID=5d076d08
DTITLE=Garth Brooks - The Singing Machine G9156
DYEAR=1900
DGENRE=Country
TTITLE0=Garth Brooks - Friends In Low Places (w/o vocals)
TTITLE1=Garth Brooks - Shameless (w/o vocals)
TTITLE2=Garth Brooks - To Make You Feel My Love (w/o vocals)
TTITLE3=Garth Brooks - The Dance (w/o vocals)
TTITLE4=Garth Brooks - To Make You Feel My Love (with vocals)
TTITLE5=Garth Brooks - Friends In Low Places (wihe vocals)
TTITLE6=Garth Brooks - Shameless (with vocals)
TTITLE7=Garth Brooks - The Dance (with vocals)
EXTD=
EXTT0=
EXTT1=
EXTT2=
EXTT3=
EXTT4=
EXTT5=
EXTT6=
EXTT7=
PLAYORDER=
